<svg width="510" height="550" viewBox="0 0 510 550" fill="none" xmlns="http://www.w3.org/2000/svg">
<g opacity="0.06">
<path d="M70.4455 212.972C36.0695 242.622 7.44021 279.744 -13.8078 322.219C-35.0557 364.694 -48.5062 411.69 -53.3913 460.524C-58.2764 509.357 -54.5003 559.072 -42.2788 606.83C-30.0573 654.588 -9.6296 699.453 17.8379 738.864L25.8923 731.917C-0.730019 693.718 -20.5292 650.234 -32.3746 603.945C-44.2201 557.657 -47.8799 509.472 -43.1452 462.141C-38.4104 414.81 -25.3738 369.26 -4.7796 328.092C15.8146 286.924 43.5629 250.944 76.8813 222.206C110.2 193.468 148.435 172.535 189.405 160.603C230.375 148.671 273.277 145.972 315.662 152.662C358.046 159.352 399.083 175.298 436.429 199.592C473.775 223.885 506.7 256.049 533.322 294.247L541.376 287.3C513.909 247.889 479.94 214.704 441.408 189.64C402.876 164.575 360.536 148.122 316.806 141.22C273.076 134.318 228.812 137.102 186.542 149.413C144.271 161.724 104.822 183.322 70.4455 212.972Z" fill="url(#paint0_linear_5_181)"/>
<path d="M96.1885 249.908C35.3077 302.419 -3.75524 380.507 -12.4068 466.992C-21.0585 553.478 1.40994 641.277 50.0556 711.075L58.11 704.128C11.1713 636.779 -10.5088 552.061 -2.16075 468.61C6.18729 385.159 43.8796 309.811 102.624 259.143C161.369 208.474 236.354 186.635 311.083 198.43C385.813 210.224 454.165 254.687 501.104 322.036L509.159 315.089C460.513 245.291 389.675 199.211 312.228 186.988C234.781 174.764 157.069 197.397 96.1885 249.908Z" fill="url(#paint1_linear_5_181)"/>
<path d="M28.5776 473.461C36.0149 399.114 69.5953 331.986 121.931 286.845C174.268 241.704 241.072 222.247 307.65 232.755C374.227 243.263 435.123 282.875 476.941 342.877L468.886 349.824C428.775 292.272 370.365 254.276 306.505 244.197C242.645 234.118 178.567 252.781 128.367 296.079C78.1672 339.378 45.9574 403.766 38.8237 475.078C31.6899 546.391 50.2165 618.787 90.3278 676.34L82.2733 683.287C40.4552 623.285 21.1402 547.808 28.5776 473.461Z" fill="url(#paint2_linear_5_181)"/>
<path d="M147.674 323.782C103.883 361.553 75.7851 417.721 69.562 479.93C63.3389 542.139 79.5004 605.293 114.491 655.498L122.546 648.551C89.2617 600.795 73.8886 540.721 79.8081 481.547C85.7276 422.373 112.455 368.944 154.11 333.016C195.765 297.087 248.937 281.601 301.927 289.965C354.917 298.328 403.385 329.856 436.669 377.613L444.723 370.666C409.732 320.46 358.779 287.315 303.071 278.523C247.364 269.731 191.466 286.011 147.674 323.782Z" fill="url(#paint3_linear_5_181)"/>
<path d="M110.546 486.399C115.555 436.328 138.171 391.119 173.417 360.718C208.664 330.317 253.655 317.214 298.493 324.291C343.331 331.367 384.342 358.045 412.505 398.454L404.451 405.401C377.995 367.441 339.469 342.38 297.348 335.732C255.228 329.085 212.964 341.394 179.853 369.952C146.743 398.511 125.498 440.98 120.793 488.016C116.087 535.052 128.307 582.802 154.763 620.763L146.709 627.71C118.546 587.3 105.538 536.469 110.546 486.399Z" fill="url(#paint4_linear_5_181)"/>
<path d="M199.16 397.655C172.458 420.686 155.325 454.935 151.531 492.867C147.736 530.8 157.591 569.308 178.927 599.921L186.981 592.974C167.352 564.81 158.286 529.382 161.777 494.484C165.268 459.587 181.03 428.078 205.596 406.889C230.162 385.7 261.519 376.568 292.77 381.5C324.02 386.432 352.604 405.026 372.233 433.19L380.288 426.243C358.952 395.63 327.882 375.42 293.915 370.058C259.947 364.697 225.862 374.624 199.16 397.655Z" fill="url(#paint5_linear_5_181)"/>
</g>
<defs>
<linearGradient id="paint0_linear_5_181" x1="-38.9965" y1="198.794" x2="215.742" y2="584.614" gradientUnits="userSpaceOnUse">
<stop stop-color="#F5947B"/>
<stop offset="1" stop-color="#F5947B" stop-opacity="0"/>
</linearGradient>
<linearGradient id="paint1_linear_5_181" x1="-38.9965" y1="198.794" x2="215.742" y2="584.614" gradientUnits="userSpaceOnUse">
<stop stop-color="#F5947B"/>
<stop offset="1" stop-color="#F5947B" stop-opacity="0"/>
</linearGradient>
<linearGradient id="paint2_linear_5_181" x1="-38.9965" y1="198.794" x2="215.742" y2="584.614" gradientUnits="userSpaceOnUse">
<stop stop-color="#F5947B"/>
<stop offset="1" stop-color="#F5947B" stop-opacity="0"/>
</linearGradient>
<linearGradient id="paint3_linear_5_181" x1="-38.9965" y1="198.794" x2="215.742" y2="584.614" gradientUnits="userSpaceOnUse">
<stop stop-color="#F5947B"/>
<stop offset="1" stop-color="#F5947B" stop-opacity="0"/>
</linearGradient>
<linearGradient id="paint4_linear_5_181" x1="-38.9965" y1="198.794" x2="215.742" y2="584.614" gradientUnits="userSpaceOnUse">
<stop stop-color="#F5947B"/>
<stop offset="1" stop-color="#F5947B" stop-opacity="0"/>
</linearGradient>
<linearGradient id="paint5_linear_5_181" x1="-38.9965" y1="198.794" x2="215.742" y2="584.614" gradientUnits="userSpaceOnUse">
<stop stop-color="#F5947B"/>
<stop offset="1" stop-color="#F5947B" stop-opacity="0"/>
</linearGradient>
</defs>
</svg>
