<svg width="1873" height="500" viewBox="0 0 1873 500" fill="none" xmlns="http://www.w3.org/2000/svg">
<g style="mix-blend-mode:lighten" opacity="0.08" clip-path="url(#clip0_2009_68)">
<path d="M1574.11 198.749C1613.36 224.849 1647.65 259.389 1675.03 300.399C1702.41 341.408 1722.34 388.083 1733.69 437.758C1745.04 487.434 1747.57 539.137 1741.16 589.915C1734.74 640.694 1719.5 689.554 1696.3 733.705L1687.1 727.59C1709.59 684.797 1724.36 637.44 1730.58 588.224C1736.8 539.008 1734.34 488.896 1723.34 440.749C1712.35 392.602 1693.03 347.363 1666.49 307.616C1639.95 267.868 1606.71 234.39 1568.68 209.093C1530.64 183.796 1488.54 167.176 1444.79 160.181C1401.04 153.185 1356.5 155.952 1313.7 168.324C1270.9 180.695 1230.69 202.429 1195.36 232.284C1160.02 262.138 1130.26 299.53 1107.78 342.322L1098.58 336.207C1121.78 292.056 1152.49 253.477 1188.94 222.675C1225.39 191.872 1266.88 169.449 1311.04 156.685C1355.2 143.921 1401.16 141.066 1446.29 148.283C1491.43 155.5 1534.86 172.649 1574.11 198.749Z" fill="url(#paint0_linear_2009_68)"/>
<path d="M1552.37 240.128C1621.87 286.352 1672.21 361.745 1692.31 449.721C1712.4 537.697 1700.61 631.05 1659.52 709.244L1650.32 703.128C1689.97 627.679 1701.35 537.601 1681.96 452.712C1662.57 367.822 1614 295.075 1546.93 250.473C1479.86 205.871 1399.79 193.068 1324.33 214.88C1248.87 236.693 1184.21 291.334 1144.56 366.784L1135.37 360.669C1176.45 282.475 1243.47 225.847 1321.67 203.241C1399.88 180.635 1482.86 193.904 1552.37 240.128Z" fill="url(#paint1_linear_2009_68)"/>
<path d="M1650.92 461.684C1633.65 386.055 1590.37 321.244 1530.62 281.507C1470.87 241.771 1399.54 230.365 1332.31 249.798C1265.08 269.231 1207.47 317.911 1172.15 385.13L1181.34 391.245C1215.22 326.77 1270.48 280.077 1334.97 261.437C1399.45 242.797 1467.87 253.738 1525.19 291.852C1582.5 329.967 1624.01 392.133 1640.58 464.675C1657.14 537.216 1647.42 614.192 1613.54 678.667L1622.73 684.782C1658.06 617.563 1668.2 537.313 1650.92 461.684Z" fill="url(#paint2_linear_2009_68)"/>
<path d="M1508.88 322.887C1558.88 356.136 1595.08 410.365 1609.54 473.647C1623.99 536.928 1615.51 604.076 1585.95 660.321L1576.76 654.205C1604.87 600.705 1612.94 536.832 1599.19 476.637C1585.44 416.443 1551 364.858 1503.44 333.232C1455.89 301.605 1399.11 292.526 1345.6 307.993C1292.09 323.46 1246.24 362.206 1218.13 415.707L1208.93 409.591C1238.49 353.347 1286.69 312.614 1342.94 296.354C1399.19 280.094 1458.88 289.638 1508.88 322.887Z" fill="url(#paint3_linear_2009_68)"/>
<path d="M1568.15 485.609C1556.52 434.676 1527.38 391.027 1487.14 364.266C1446.89 337.505 1398.85 329.823 1353.58 342.911C1308.3 355.998 1269.5 388.783 1245.71 434.053L1254.91 440.168C1277.26 397.642 1313.7 366.844 1356.23 354.55C1398.77 342.255 1443.9 349.472 1481.7 374.611C1519.5 399.75 1546.88 440.753 1557.81 488.6C1568.73 536.447 1562.32 587.218 1539.97 629.744L1549.17 635.859C1572.96 590.59 1579.79 536.543 1568.15 485.609Z" fill="url(#paint4_linear_2009_68)"/>
<path d="M1465.39 405.646C1495.88 425.919 1517.95 458.986 1526.77 497.572C1535.58 536.158 1530.41 577.103 1512.39 611.398L1503.19 605.283C1519.77 573.731 1524.53 536.062 1516.42 500.563C1508.31 465.064 1488 434.642 1459.96 415.99C1431.91 397.339 1398.42 391.985 1366.87 401.106C1335.31 410.228 1308.27 433.078 1291.69 464.63L1282.5 458.514C1300.52 424.219 1329.91 399.382 1364.21 389.467C1398.51 379.552 1434.91 385.372 1465.39 405.646Z" fill="url(#paint5_linear_2009_68)"/>
</g>
<g style="mix-blend-mode:lighten" opacity="0.08" clip-path="url(#clip1_2009_68)">
<path d="M555.111 198.749C594.358 224.849 628.65 259.389 656.031 300.399C683.412 341.408 703.344 388.083 714.691 437.758C726.037 487.434 728.575 539.137 722.159 589.915C715.744 640.694 700.5 689.554 677.3 733.705L668.104 727.59C690.591 684.797 705.365 637.44 711.583 588.224C717.801 539.008 715.342 488.896 704.344 440.749C693.347 392.602 674.028 347.363 647.49 307.616C620.952 267.868 587.714 234.39 549.675 209.093C511.636 183.796 469.54 167.176 425.792 160.181C382.043 153.185 337.497 155.952 294.699 168.324C251.901 180.695 211.688 202.429 176.356 232.284C141.024 262.138 111.265 299.53 88.7781 342.322L79.5824 336.207C102.783 292.056 133.487 253.477 169.94 222.675C206.394 191.872 247.884 169.449 292.041 156.685C336.198 143.921 382.157 141.066 427.295 148.283C472.432 155.5 515.864 172.649 555.111 198.749Z" fill="url(#paint6_linear_2009_68)"/>
<path d="M533.367 240.128C602.874 286.352 653.212 361.745 673.306 449.721C693.401 537.697 681.606 631.05 640.517 709.244L631.321 703.128C670.969 627.679 682.349 537.601 662.96 452.712C643.57 367.822 594.999 295.075 527.931 250.473C460.863 205.871 380.792 193.068 305.333 214.88C229.874 236.693 165.208 291.334 125.561 366.784L116.365 360.669C157.454 282.475 224.472 225.847 302.675 203.241C380.878 180.635 463.86 193.904 533.367 240.128Z" fill="url(#paint7_linear_2009_68)"/>
<path d="M631.921 461.684C614.647 386.055 571.375 321.244 511.623 281.507C451.872 241.771 380.536 230.365 313.309 249.798C246.081 269.231 188.47 317.911 153.148 385.13L162.343 391.245C196.224 326.77 251.484 280.077 315.967 261.437C380.45 242.797 448.874 253.738 506.187 291.852C563.5 329.967 605.006 392.133 621.575 464.675C638.144 537.216 628.419 614.192 594.539 678.667L603.734 684.782C639.057 617.563 649.196 537.313 631.921 461.684Z" fill="url(#paint8_linear_2009_68)"/>
<path d="M489.879 322.887C539.875 356.136 576.083 410.365 590.537 473.647C604.991 536.928 596.507 604.076 566.952 660.321L557.756 654.205C585.87 600.705 593.94 536.832 580.191 476.637C566.442 416.443 532 364.858 484.443 333.232C436.886 301.605 380.108 292.526 326.601 307.993C273.094 323.46 227.239 362.206 199.126 415.707L189.93 409.591C219.485 353.347 267.691 312.614 323.942 296.354C380.194 280.094 439.883 289.638 489.879 322.887Z" fill="url(#paint9_linear_2009_68)"/>
<path d="M549.152 485.609C537.519 434.676 508.376 391.027 468.135 364.266C427.894 337.505 379.852 329.823 334.576 342.911C289.301 355.998 250.501 388.783 226.713 434.053L235.908 440.168C258.255 397.642 294.703 366.844 337.235 354.55C379.766 342.255 424.897 349.472 462.699 374.611C500.501 399.75 527.878 440.753 538.806 488.6C549.735 536.447 543.32 587.218 520.974 629.744L530.169 635.859C553.958 590.59 560.786 536.543 549.152 485.609Z" fill="url(#paint10_linear_2009_68)"/>
<path d="M446.391 405.646C476.877 425.919 498.954 458.986 507.768 497.572C516.581 536.158 511.408 577.103 493.387 611.398L484.191 605.283C500.771 573.731 505.53 536.062 497.422 500.563C489.313 465.064 469.002 434.642 440.955 415.99C412.908 397.339 379.424 391.985 347.869 401.106C316.313 410.228 289.271 433.078 272.691 464.63L263.495 458.514C281.517 424.219 310.911 399.382 345.21 389.467C379.51 379.552 415.906 385.372 446.391 405.646Z" fill="url(#paint11_linear_2009_68)"/>
</g>
<defs>
<linearGradient id="paint0_linear_2009_68" x1="1685.02" y1="169.993" x2="1472.48" y2="600.389" gradientUnits="userSpaceOnUse">
<stop stop-color="white"/>
<stop offset="1" stop-color="white" stop-opacity="0"/>
</linearGradient>
<linearGradient id="paint1_linear_2009_68" x1="1685.02" y1="169.993" x2="1472.48" y2="600.389" gradientUnits="userSpaceOnUse">
<stop stop-color="white"/>
<stop offset="1" stop-color="white" stop-opacity="0"/>
</linearGradient>
<linearGradient id="paint2_linear_2009_68" x1="1685.02" y1="169.993" x2="1472.48" y2="600.389" gradientUnits="userSpaceOnUse">
<stop stop-color="white"/>
<stop offset="1" stop-color="white" stop-opacity="0"/>
</linearGradient>
<linearGradient id="paint3_linear_2009_68" x1="1685.02" y1="169.993" x2="1472.48" y2="600.389" gradientUnits="userSpaceOnUse">
<stop stop-color="white"/>
<stop offset="1" stop-color="white" stop-opacity="0"/>
</linearGradient>
<linearGradient id="paint4_linear_2009_68" x1="1685.02" y1="169.993" x2="1472.48" y2="600.389" gradientUnits="userSpaceOnUse">
<stop stop-color="white"/>
<stop offset="1" stop-color="white" stop-opacity="0"/>
</linearGradient>
<linearGradient id="paint5_linear_2009_68" x1="1685.02" y1="169.993" x2="1472.48" y2="600.389" gradientUnits="userSpaceOnUse">
<stop stop-color="white"/>
<stop offset="1" stop-color="white" stop-opacity="0"/>
</linearGradient>
<linearGradient id="paint6_linear_2009_68" x1="666.022" y1="169.993" x2="453.481" y2="600.389" gradientUnits="userSpaceOnUse">
<stop stop-color="white"/>
<stop offset="1" stop-color="white" stop-opacity="0"/>
</linearGradient>
<linearGradient id="paint7_linear_2009_68" x1="666.022" y1="169.993" x2="453.481" y2="600.389" gradientUnits="userSpaceOnUse">
<stop stop-color="white"/>
<stop offset="1" stop-color="white" stop-opacity="0"/>
</linearGradient>
<linearGradient id="paint8_linear_2009_68" x1="666.022" y1="169.993" x2="453.481" y2="600.389" gradientUnits="userSpaceOnUse">
<stop stop-color="white"/>
<stop offset="1" stop-color="white" stop-opacity="0"/>
</linearGradient>
<linearGradient id="paint9_linear_2009_68" x1="666.022" y1="169.993" x2="453.481" y2="600.389" gradientUnits="userSpaceOnUse">
<stop stop-color="white"/>
<stop offset="1" stop-color="white" stop-opacity="0"/>
</linearGradient>
<linearGradient id="paint10_linear_2009_68" x1="666.022" y1="169.993" x2="453.481" y2="600.389" gradientUnits="userSpaceOnUse">
<stop stop-color="white"/>
<stop offset="1" stop-color="white" stop-opacity="0"/>
</linearGradient>
<linearGradient id="paint11_linear_2009_68" x1="666.022" y1="169.993" x2="453.481" y2="600.389" gradientUnits="userSpaceOnUse">
<stop stop-color="white"/>
<stop offset="1" stop-color="white" stop-opacity="0"/>
</linearGradient>
<clipPath id="clip0_2009_68">
<rect width="1078" height="500" fill="white" transform="matrix(-1 8.74228e-08 8.74228e-08 1 1873 0)"/>
</clipPath>
<clipPath id="clip1_2009_68">
<rect width="1274" height="479" fill="white" transform="matrix(-1 8.74228e-08 8.74228e-08 1 854 0)"/>
</clipPath>
</defs>
</svg>
